<svg width="1506" height="282" viewBox="0 0 1506 282" fill="none" xmlns="http://www.w3.org/2000/svg">
<rect x="10" y="10" width="430" height="260" stroke="#EAE6E0" stroke-width="20"/>
<mask id="path-2-outside-1_214_2" maskUnits="userSpaceOnUse" x="32" y="91" width="386" height="152" fill="black">
<rect fill="white" x="32" y="91" width="386" height="152"/>
<path d="M33.8 183.8C33.8 172.2 35.8667 162.067 40 153.4C44.2667 144.733 50.0667 138.067 57.4 133.4C64.7333 128.733 72.8667 126.4 81.8 126.4C89 126.4 95.4 127.933 101 131C106.733 133.933 111.2 138 114.4 143.2V92H153.8V240H114.4V224.4C111.333 229.6 107 233.733 101.4 236.8C95.8 239.867 89.2 241.4 81.6 241.4C72.6667 241.4 64.5333 239.067 57.2 234.4C50 229.733 44.2667 223.067 40 214.4C35.8667 205.6 33.8 195.4 33.8 183.8ZM114.6 183.8C114.6 176.6 112.6 170.933 108.6 166.8C104.733 162.667 99.9333 160.6 94.2 160.6C88.3333 160.6 83.4667 162.667 79.6 166.8C75.7333 170.8 73.8 176.467 73.8 183.8C73.8 191 75.7333 196.733 79.6 201C83.4667 205.133 88.3333 207.2 94.2 207.2C99.9333 207.2 104.733 205.133 108.6 201C112.6 196.867 114.6 191.133 114.6 183.8ZM283.338 182.6C283.338 185.667 283.138 188.733 282.738 191.8H208.538C208.938 197.933 210.604 202.533 213.538 205.6C216.604 208.533 220.471 210 225.138 210C231.671 210 236.338 207.067 239.138 201.2H280.938C279.204 208.933 275.804 215.867 270.738 222C265.804 228 259.538 232.733 251.938 236.2C244.338 239.667 235.938 241.4 226.738 241.4C215.671 241.4 205.804 239.067 197.138 234.4C188.604 229.733 181.871 223.067 176.938 214.4C172.138 205.733 169.738 195.533 169.738 183.8C169.738 172.067 172.138 161.933 176.938 153.4C181.738 144.733 188.404 138.067 196.938 133.4C205.604 128.733 215.538 126.4 226.738 126.4C237.804 126.4 247.604 128.667 256.138 133.2C264.671 137.733 271.338 144.267 276.138 152.8C280.938 161.2 283.338 171.133 283.338 182.6ZM243.338 172.8C243.338 168 241.738 164.267 238.538 161.6C235.338 158.8 231.338 157.4 226.538 157.4C221.738 157.4 217.804 158.733 214.738 161.4C211.671 163.933 209.671 167.733 208.738 172.8H243.338ZM353.18 203L374.18 127.8H415.98L377.38 240H328.58L289.98 127.8H331.78L353.18 203Z"/>
</mask>
<path d="M33.8 183.8C33.8 172.2 35.8667 162.067 40 153.4C44.2667 144.733 50.0667 138.067 57.4 133.4C64.7333 128.733 72.8667 126.4 81.8 126.4C89 126.4 95.4 127.933 101 131C106.733 133.933 111.2 138 114.4 143.2V92H153.8V240H114.4V224.4C111.333 229.6 107 233.733 101.4 236.8C95.8 239.867 89.2 241.4 81.6 241.4C72.6667 241.4 64.5333 239.067 57.2 234.4C50 229.733 44.2667 223.067 40 214.4C35.8667 205.6 33.8 195.4 33.8 183.8ZM114.6 183.8C114.6 176.6 112.6 170.933 108.6 166.8C104.733 162.667 99.9333 160.6 94.2 160.6C88.3333 160.6 83.4667 162.667 79.6 166.8C75.7333 170.8 73.8 176.467 73.8 183.8C73.8 191 75.7333 196.733 79.6 201C83.4667 205.133 88.3333 207.2 94.2 207.2C99.9333 207.2 104.733 205.133 108.6 201C112.6 196.867 114.6 191.133 114.6 183.8ZM283.338 182.6C283.338 185.667 283.138 188.733 282.738 191.8H208.538C208.938 197.933 210.604 202.533 213.538 205.6C216.604 208.533 220.471 210 225.138 210C231.671 210 236.338 207.067 239.138 201.2H280.938C279.204 208.933 275.804 215.867 270.738 222C265.804 228 259.538 232.733 251.938 236.2C244.338 239.667 235.938 241.4 226.738 241.4C215.671 241.4 205.804 239.067 197.138 234.4C188.604 229.733 181.871 223.067 176.938 214.4C172.138 205.733 169.738 195.533 169.738 183.8C169.738 172.067 172.138 161.933 176.938 153.4C181.738 144.733 188.404 138.067 196.938 133.4C205.604 128.733 215.538 126.4 226.738 126.4C237.804 126.4 247.604 128.667 256.138 133.2C264.671 137.733 271.338 144.267 276.138 152.8C280.938 161.2 283.338 171.133 283.338 182.6ZM243.338 172.8C243.338 168 241.738 164.267 238.538 161.6C235.338 158.8 231.338 157.4 226.538 157.4C221.738 157.4 217.804 158.733 214.738 161.4C211.671 163.933 209.671 167.733 208.738 172.8H243.338ZM353.18 203L374.18 127.8H415.98L377.38 240H328.58L289.98 127.8H331.78L353.18 203Z" fill="#EAE6E0"/>
<path d="M40 153.4L39.1028 152.958L39.0974 152.97L40 153.4ZM57.4 133.4L56.8631 132.556H56.8631L57.4 133.4ZM101 131L100.52 131.877L100.532 131.884L100.545 131.89L101 131ZM114.4 143.2L113.548 143.724L115.4 146.733V143.2H114.4ZM114.4 92V91H113.4V92H114.4ZM153.8 92H154.8V91H153.8V92ZM153.8 240V241H154.8V240H153.8ZM114.4 240H113.4V241H114.4V240ZM114.4 224.4H115.4V220.736L113.539 223.892L114.4 224.4ZM101.4 236.8L100.92 235.923L101.4 236.8ZM57.2 234.4L56.6561 235.239L56.6631 235.244L57.2 234.4ZM40 214.4L39.0949 214.825L39.0988 214.833L39.1028 214.842L40 214.4ZM108.6 166.8L107.87 167.483L107.876 167.489L107.881 167.495L108.6 166.8ZM79.6 166.8L80.319 167.495L80.3247 167.489L80.3303 167.483L79.6 166.8ZM79.6 201L78.859 201.672L78.8643 201.677L78.8697 201.683L79.6 201ZM108.6 201L107.881 200.305L107.876 200.311L107.87 200.317L108.6 201ZM34.8 183.8C34.8 172.318 36.8453 162.338 40.9026 153.83L39.0974 152.97C34.888 161.796 32.8 172.082 32.8 183.8H34.8ZM40.8972 153.842C45.0921 145.321 50.775 138.801 57.9369 134.244L56.8631 132.556C49.3583 137.332 43.4412 144.146 39.1028 152.958L40.8972 153.842ZM57.9369 134.244C65.1051 129.682 73.0513 127.4 81.8 127.4V125.4C72.6821 125.4 64.3615 127.785 56.8631 132.556L57.9369 134.244ZM81.8 127.4C88.8539 127.4 95.0849 128.901 100.52 131.877L101.48 130.123C95.7151 126.966 89.1461 125.4 81.8 125.4V127.4ZM100.545 131.89C106.124 134.745 110.45 138.689 113.548 143.724L115.252 142.676C111.95 137.311 107.343 133.122 101.455 130.11L100.545 131.89ZM115.4 143.2V92H113.4V143.2H115.4ZM114.4 93H153.8V91H114.4V93ZM152.8 92V240H154.8V92H152.8ZM153.8 239H114.4V241H153.8V239ZM115.4 240V224.4H113.4V240H115.4ZM113.539 223.892C110.569 228.928 106.371 232.938 100.92 235.923L101.88 237.677C107.629 234.529 112.098 230.272 115.261 224.908L113.539 223.892ZM100.92 235.923C95.4926 238.895 89.064 240.4 81.6 240.4V242.4C89.336 242.4 96.1074 240.838 101.88 237.677L100.92 235.923ZM81.6 240.4C72.8513 240.4 64.9051 238.118 57.7369 233.556L56.6631 235.244C64.1615 240.015 72.4821 242.4 81.6 242.4V240.4ZM57.7439 233.561C50.7138 229.004 45.0944 222.484 40.8972 213.958L39.1028 214.842C43.439 223.649 49.2862 230.462 56.6561 235.239L57.7439 233.561ZM40.9051 213.975C36.8452 205.331 34.8 195.281 34.8 183.8H32.8C32.8 195.519 34.8882 205.869 39.0949 214.825L40.9051 213.975ZM115.6 183.8C115.6 176.409 113.542 170.469 109.319 166.105L107.881 167.495C111.658 171.398 113.6 176.791 113.6 183.8H115.6ZM109.33 166.117C105.272 161.778 100.206 159.6 94.2 159.6V161.6C99.6606 161.6 104.195 163.555 107.87 167.483L109.33 166.117ZM94.2 159.6C88.068 159.6 82.9331 161.773 78.8697 166.117L80.3303 167.483C84.0002 163.56 88.5987 161.6 94.2 161.6V159.6ZM78.881 166.105C74.7825 170.345 72.8 176.292 72.8 183.8H74.8C74.8 176.641 76.6842 171.255 80.319 167.495L78.881 166.105ZM72.8 183.8C72.8 191.184 74.7868 197.178 78.859 201.672L80.341 200.328C76.6799 196.289 74.8 190.816 74.8 183.8H72.8ZM78.8697 201.683C82.9331 206.027 88.068 208.2 94.2 208.2V206.2C88.5987 206.2 84.0002 204.24 80.3303 200.317L78.8697 201.683ZM94.2 208.2C100.206 208.2 105.272 206.022 109.33 201.683L107.87 200.317C104.195 204.245 99.6606 206.2 94.2 206.2V208.2ZM109.319 201.695C113.545 197.328 115.6 191.318 115.6 183.8H113.6C113.6 190.948 111.655 196.405 107.881 200.305L109.319 201.695ZM282.738 191.8V192.8H283.616L283.729 191.929L282.738 191.8ZM208.538 191.8V190.8H207.47L207.54 191.865L208.538 191.8ZM213.538 205.6L212.815 206.291L212.83 206.307L212.846 206.323L213.538 205.6ZM239.137 201.2V200.2H238.507L238.235 200.769L239.137 201.2ZM280.938 201.2L281.913 201.419L282.186 200.2H280.938V201.2ZM270.738 222L269.967 221.363L269.965 221.365L270.738 222ZM251.938 236.2L252.353 237.11L251.938 236.2ZM197.137 234.4L196.658 235.277L196.663 235.28L197.137 234.4ZM176.938 214.4L176.063 214.885L176.068 214.895L176.938 214.4ZM176.938 153.4L177.809 153.89L177.812 153.884L176.938 153.4ZM196.938 133.4L196.463 132.52L196.458 132.523L196.938 133.4ZM256.138 133.2L256.607 132.317L256.138 133.2ZM276.138 152.8L275.266 153.29L275.269 153.296L276.138 152.8ZM243.338 172.8V173.8H244.338V172.8H243.338ZM238.538 161.6L237.879 162.353L237.888 162.361L237.897 162.368L238.538 161.6ZM214.738 161.4L215.374 162.171L215.384 162.163L215.394 162.155L214.738 161.4ZM208.738 172.8L207.754 172.619L207.536 173.8H208.738V172.8ZM282.337 182.6C282.337 185.623 282.14 188.647 281.746 191.671L283.729 191.929C284.135 188.82 284.337 185.71 284.337 182.6H282.337ZM282.738 190.8H208.538V192.8H282.738V190.8ZM207.54 191.865C207.948 198.13 209.66 202.993 212.815 206.291L214.26 204.909C211.549 202.074 209.927 197.736 209.535 191.735L207.54 191.865ZM212.846 206.323C216.118 209.452 220.241 211 225.138 211V209C220.7 209 217.09 207.614 214.229 204.877L212.846 206.323ZM225.138 211C228.557 211 231.549 210.231 234.07 208.647C236.59 207.062 238.573 204.704 240.04 201.631L238.235 200.769C236.902 203.563 235.151 205.604 233.005 206.953C230.859 208.303 228.251 209 225.138 209V211ZM239.137 202.2H280.938V200.2H239.137V202.2ZM279.962 200.981C278.263 208.56 274.933 215.351 269.967 221.363L271.508 222.637C276.675 216.383 280.145 209.306 281.913 201.419L279.962 200.981ZM269.965 221.365C265.136 227.239 258.995 231.882 251.523 235.29L252.353 237.11C260.08 233.585 266.473 228.761 271.51 222.635L269.965 221.365ZM251.523 235.29C244.065 238.692 235.809 240.4 226.738 240.4V242.4C236.066 242.4 244.61 240.642 252.353 237.11L251.523 235.29ZM226.738 240.4C215.815 240.4 206.115 238.098 197.612 233.52L196.663 235.28C205.493 240.035 215.526 242.4 226.738 242.4V240.4ZM197.617 233.523C189.251 228.947 182.651 222.415 177.807 213.905L176.068 214.895C181.091 223.718 187.957 230.519 196.658 235.277L197.617 233.523ZM177.812 213.915C173.108 205.422 170.738 195.395 170.738 183.8H168.738C168.738 195.672 171.167 206.044 176.063 214.885L177.812 213.915ZM170.738 183.8C170.738 172.204 173.109 162.247 177.809 153.89L176.066 152.91C171.166 161.62 168.738 171.929 168.738 183.8H170.738ZM177.812 153.884C182.522 145.38 189.053 138.851 197.417 134.277L196.458 132.523C187.755 137.282 180.953 144.086 176.063 152.915L177.812 153.884ZM197.412 134.28C205.914 129.703 215.68 127.4 226.738 127.4V125.4C215.395 125.4 205.295 127.764 196.463 132.52L197.412 134.28ZM226.738 127.4C237.665 127.4 247.299 129.637 255.668 134.083L256.607 132.317C247.909 127.696 237.944 125.4 226.738 125.4V127.4ZM255.668 134.083C264.03 138.525 270.558 144.921 275.266 153.29L277.009 152.31C272.117 143.612 265.311 136.941 256.607 132.317L255.668 134.083ZM275.269 153.296C279.968 161.519 282.337 171.275 282.337 182.6H284.337C284.337 170.992 281.907 160.881 277.006 152.304L275.269 153.296ZM244.338 172.8C244.338 167.754 242.642 163.719 239.178 160.832L237.897 162.368C240.833 164.815 242.338 168.246 242.338 172.8H244.338ZM239.196 160.847C235.79 157.867 231.546 156.4 226.538 156.4V158.4C231.129 158.4 234.885 159.733 237.879 162.353L239.196 160.847ZM226.538 156.4C221.542 156.4 217.362 157.793 214.081 160.645L215.394 162.155C218.246 159.674 221.933 158.4 226.538 158.4V156.4ZM214.101 160.629C210.805 163.352 208.717 167.39 207.754 172.619L209.721 172.981C210.624 168.076 212.537 164.515 215.374 162.171L214.101 160.629ZM208.738 173.8H243.338V171.8H208.738V173.8ZM353.18 203L352.218 203.274L353.189 206.685L354.143 203.269L353.18 203ZM374.18 127.8V126.8H373.421L373.217 127.531L374.18 127.8ZM415.98 127.8L416.925 128.125L417.381 126.8H415.98V127.8ZM377.38 240V241H378.093L378.325 240.325L377.38 240ZM328.58 240L327.634 240.325L327.866 241H328.58V240ZM289.98 127.8V126.8H288.578L289.034 128.125L289.98 127.8ZM331.78 127.8L332.742 127.526L332.535 126.8H331.78V127.8ZM354.143 203.269L375.143 128.069L373.217 127.531L352.217 202.731L354.143 203.269ZM374.18 128.8H415.98V126.8H374.18V128.8ZM415.034 127.475L376.434 239.675L378.325 240.325L416.925 128.125L415.034 127.475ZM377.38 239H328.58V241H377.38V239ZM329.525 239.675L290.925 127.475L289.034 128.125L327.634 240.325L329.525 239.675ZM289.98 128.8H331.78V126.8H289.98V128.8ZM330.818 128.074L352.218 203.274L354.142 202.726L332.742 127.526L330.818 128.074Z" fill="#EAE6E0" mask="url(#path-2-outside-1_214_2)"/>
<mask id="path-4-outside-2_214_2" maskUnits="userSpaceOnUse" x="468" y="91" width="1034" height="152" fill="black">
<rect fill="white" x="468" y="91" width="1034" height="152"/>
<path d="M543 126.8C555.8 126.8 565.933 131.133 573.4 139.8C581 148.333 584.8 159.933 584.8 174.6V240H545.6V179.8C545.6 173.4 543.933 168.4 540.6 164.8C537.267 161.067 532.8 159.2 527.2 159.2C521.333 159.2 516.733 161.067 513.4 164.8C510.067 168.4 508.4 173.4 508.4 179.8V240H469.2V92H508.4V143.8C511.867 138.733 516.533 134.667 522.4 131.6C528.4 128.4 535.267 126.8 543 126.8ZM721.109 127.8V240H681.709V224C678.376 229.067 673.776 233.2 667.909 236.4C662.043 239.467 655.309 241 647.709 241C634.643 241 624.309 236.733 616.709 228.2C609.243 219.533 605.509 207.8 605.509 193V127.8H644.509V188C644.509 194.4 646.176 199.467 649.509 203.2C652.976 206.8 657.509 208.6 663.109 208.6C668.843 208.6 673.376 206.8 676.709 203.2C680.043 199.467 681.709 194.4 681.709 188V127.8H721.109ZM890.019 126.8C904.152 126.8 915.219 131.067 923.219 139.6C931.352 148.133 935.419 159.8 935.419 174.6V240H896.219V179.8C896.219 173.8 894.552 169.133 891.219 165.8C887.885 162.467 883.352 160.8 877.619 160.8C871.885 160.8 867.352 162.467 864.019 165.8C860.685 169.133 859.019 173.8 859.019 179.8V240H819.819V179.8C819.819 173.8 818.152 169.133 814.819 165.8C811.619 162.467 807.152 160.8 801.419 160.8C795.552 160.8 790.952 162.467 787.619 165.8C784.285 169.133 782.619 173.8 782.619 179.8V240H743.419V127.8H782.619V142.6C786.085 137.8 790.552 134 796.019 131.2C801.619 128.267 808.019 126.8 815.219 126.8C823.485 126.8 830.819 128.6 837.219 132.2C843.752 135.8 848.885 140.867 852.619 147.4C856.619 141.267 861.885 136.333 868.419 132.6C874.952 128.733 882.152 126.8 890.019 126.8ZM996.095 143.4C999.162 138.067 1003.5 133.933 1009.1 131C1014.7 127.933 1021.3 126.4 1028.9 126.4C1037.83 126.4 1045.9 128.733 1053.1 133.4C1060.43 138.067 1066.16 144.733 1070.3 153.4C1074.56 162.067 1076.7 172.2 1076.7 183.8C1076.7 195.4 1074.56 205.6 1070.3 214.4C1066.16 223.067 1060.43 229.733 1053.1 234.4C1045.9 239.067 1037.83 241.4 1028.9 241.4C1021.3 241.4 1014.7 239.933 1009.1 237C1003.5 233.933 999.162 229.733 996.095 224.4V240H956.895V92H996.095V143.4ZM1036.9 183.8C1036.9 176.467 1034.9 170.8 1030.9 166.8C1027.03 162.667 1022.23 160.6 1016.5 160.6C1010.76 160.6 1005.9 162.667 1001.9 166.8C998.029 170.933 996.095 176.6 996.095 183.8C996.095 191.133 998.029 196.867 1001.9 201C1005.9 205.133 1010.76 207.2 1016.5 207.2C1022.23 207.2 1027.03 205.133 1030.9 201C1034.9 196.733 1036.9 191 1036.9 183.8ZM1200.03 182.6C1200.03 185.667 1199.83 188.733 1199.43 191.8H1125.23C1125.63 197.933 1127.3 202.533 1130.23 205.6C1133.3 208.533 1137.17 210 1141.83 210C1148.37 210 1153.03 207.067 1155.83 201.2H1197.63C1195.9 208.933 1192.5 215.867 1187.43 222C1182.5 228 1176.23 232.733 1168.63 236.2C1161.03 239.667 1152.63 241.4 1143.43 241.4C1132.37 241.4 1122.5 239.067 1113.83 234.4C1105.3 229.733 1098.57 223.067 1093.63 214.4C1088.83 205.733 1086.43 195.533 1086.43 183.8C1086.43 172.067 1088.83 161.933 1093.63 153.4C1098.43 144.733 1105.1 138.067 1113.63 133.4C1122.3 128.733 1132.23 126.4 1143.43 126.4C1154.5 126.4 1164.3 128.667 1172.83 133.2C1181.37 137.733 1188.03 144.267 1192.83 152.8C1197.63 161.2 1200.03 171.133 1200.03 182.6ZM1160.03 172.8C1160.03 168 1158.43 164.267 1155.23 161.6C1152.03 158.8 1148.03 157.4 1143.23 157.4C1138.43 157.4 1134.5 158.733 1131.43 161.4C1128.37 163.933 1126.37 167.733 1125.43 172.8H1160.03ZM1255.28 147.6C1259.68 141.2 1265.01 136.133 1271.28 132.4C1277.54 128.667 1284.28 126.8 1291.48 126.8V168.6H1280.48C1271.94 168.6 1265.61 170.267 1261.48 173.6C1257.34 176.933 1255.28 182.733 1255.28 191V240H1216.08V127.8H1255.28V147.6ZM1371.73 206.6V240H1354.73C1326.06 240 1311.73 225.8 1311.73 197.4V160.4H1297.93V127.8H1311.73V100.6H1351.13V127.8H1371.53V160.4H1351.13V198C1351.13 201.067 1351.79 203.267 1353.13 204.6C1354.59 205.933 1356.99 206.6 1360.33 206.6H1371.73ZM1441.91 241.4C1430.71 241.4 1420.64 239.067 1411.71 234.4C1402.91 229.733 1395.97 223.067 1390.91 214.4C1385.84 205.733 1383.31 195.533 1383.31 183.8C1383.31 172.2 1385.84 162.067 1390.91 153.4C1396.11 144.733 1403.11 138.067 1411.91 133.4C1420.84 128.733 1430.91 126.4 1442.11 126.4C1453.31 126.4 1463.31 128.733 1472.11 133.4C1481.04 138.067 1488.04 144.733 1493.11 153.4C1498.31 162.067 1500.91 172.2 1500.91 183.8C1500.91 195.4 1498.31 205.6 1493.11 214.4C1488.04 223.067 1481.04 229.733 1472.11 234.4C1463.17 239.067 1453.11 241.4 1441.91 241.4ZM1441.91 207.4C1447.37 207.4 1451.91 205.4 1455.51 201.4C1459.24 197.267 1461.11 191.4 1461.11 183.8C1461.11 176.2 1459.24 170.4 1455.51 166.4C1451.91 162.4 1447.44 160.4 1442.11 160.4C1436.77 160.4 1432.31 162.4 1428.71 166.4C1425.11 170.4 1423.31 176.2 1423.31 183.8C1423.31 191.533 1425.04 197.4 1428.51 201.4C1431.97 205.4 1436.44 207.4 1441.91 207.4Z"/>
</mask>
<path d="M543 126.8C555.8 126.8 565.933 131.133 573.4 139.8C581 148.333 584.8 159.933 584.8 174.6V240H545.6V179.8C545.6 173.4 543.933 168.4 540.6 164.8C537.267 161.067 532.8 159.2 527.2 159.2C521.333 159.2 516.733 161.067 513.4 164.8C510.067 168.4 508.4 173.4 508.4 179.8V240H469.2V92H508.4V143.8C511.867 138.733 516.533 134.667 522.4 131.6C528.4 128.4 535.267 126.8 543 126.8ZM721.109 127.8V240H681.709V224C678.376 229.067 673.776 233.2 667.909 236.4C662.043 239.467 655.309 241 647.709 241C634.643 241 624.309 236.733 616.709 228.2C609.243 219.533 605.509 207.8 605.509 193V127.8H644.509V188C644.509 194.4 646.176 199.467 649.509 203.2C652.976 206.8 657.509 208.6 663.109 208.6C668.843 208.6 673.376 206.8 676.709 203.2C680.043 199.467 681.709 194.4 681.709 188V127.8H721.109ZM890.019 126.8C904.152 126.8 915.219 131.067 923.219 139.6C931.352 148.133 935.419 159.8 935.419 174.6V240H896.219V179.8C896.219 173.8 894.552 169.133 891.219 165.8C887.885 162.467 883.352 160.8 877.619 160.8C871.885 160.8 867.352 162.467 864.019 165.8C860.685 169.133 859.019 173.8 859.019 179.8V240H819.819V179.8C819.819 173.8 818.152 169.133 814.819 165.8C811.619 162.467 807.152 160.8 801.419 160.8C795.552 160.8 790.952 162.467 787.619 165.8C784.285 169.133 782.619 173.8 782.619 179.8V240H743.419V127.8H782.619V142.6C786.085 137.8 790.552 134 796.019 131.2C801.619 128.267 808.019 126.8 815.219 126.8C823.485 126.8 830.819 128.6 837.219 132.2C843.752 135.8 848.885 140.867 852.619 147.4C856.619 141.267 861.885 136.333 868.419 132.6C874.952 128.733 882.152 126.8 890.019 126.8ZM996.095 143.4C999.162 138.067 1003.5 133.933 1009.1 131C1014.7 127.933 1021.3 126.4 1028.9 126.4C1037.83 126.4 1045.9 128.733 1053.1 133.4C1060.43 138.067 1066.16 144.733 1070.3 153.4C1074.56 162.067 1076.7 172.2 1076.7 183.8C1076.7 195.4 1074.56 205.6 1070.3 214.4C1066.16 223.067 1060.43 229.733 1053.1 234.4C1045.9 239.067 1037.83 241.4 1028.9 241.4C1021.3 241.4 1014.7 239.933 1009.1 237C1003.5 233.933 999.162 229.733 996.095 224.4V240H956.895V92H996.095V143.4ZM1036.9 183.8C1036.9 176.467 1034.9 170.8 1030.9 166.8C1027.03 162.667 1022.23 160.6 1016.5 160.6C1010.76 160.6 1005.9 162.667 1001.9 166.8C998.029 170.933 996.095 176.6 996.095 183.8C996.095 191.133 998.029 196.867 1001.9 201C1005.9 205.133 1010.76 207.2 1016.5 207.2C1022.23 207.2 1027.03 205.133 1030.9 201C1034.9 196.733 1036.9 191 1036.9 183.8ZM1200.03 182.6C1200.03 185.667 1199.83 188.733 1199.43 191.8H1125.23C1125.63 197.933 1127.3 202.533 1130.23 205.6C1133.3 208.533 1137.17 210 1141.83 210C1148.37 210 1153.03 207.067 1155.83 201.2H1197.63C1195.9 208.933 1192.5 215.867 1187.43 222C1182.5 228 1176.23 232.733 1168.63 236.2C1161.03 239.667 1152.63 241.4 1143.43 241.4C1132.37 241.4 1122.5 239.067 1113.83 234.4C1105.3 229.733 1098.57 223.067 1093.63 214.4C1088.83 205.733 1086.43 195.533 1086.43 183.8C1086.43 172.067 1088.83 161.933 1093.63 153.4C1098.43 144.733 1105.1 138.067 1113.63 133.4C1122.3 128.733 1132.23 126.4 1143.43 126.4C1154.5 126.4 1164.3 128.667 1172.83 133.2C1181.37 137.733 1188.03 144.267 1192.83 152.8C1197.63 161.2 1200.03 171.133 1200.03 182.6ZM1160.03 172.8C1160.03 168 1158.43 164.267 1155.23 161.6C1152.03 158.8 1148.03 157.4 1143.23 157.4C1138.43 157.4 1134.5 158.733 1131.43 161.4C1128.37 163.933 1126.37 167.733 1125.43 172.8H1160.03ZM1255.28 147.6C1259.68 141.2 1265.01 136.133 1271.28 132.4C1277.54 128.667 1284.28 126.8 1291.48 126.8V168.6H1280.48C1271.94 168.6 1265.61 170.267 1261.48 173.6C1257.34 176.933 1255.28 182.733 1255.28 191V240H1216.08V127.8H1255.28V147.6ZM1371.73 206.6V240H1354.73C1326.06 240 1311.73 225.8 1311.73 197.4V160.4H1297.93V127.8H1311.73V100.6H1351.13V127.8H1371.53V160.4H1351.13V198C1351.13 201.067 1351.79 203.267 1353.13 204.6C1354.59 205.933 1356.99 206.6 1360.33 206.6H1371.73ZM1441.91 241.4C1430.71 241.4 1420.64 239.067 1411.71 234.4C1402.91 229.733 1395.97 223.067 1390.91 214.4C1385.84 205.733 1383.31 195.533 1383.31 183.8C1383.31 172.2 1385.84 162.067 1390.91 153.4C1396.11 144.733 1403.11 138.067 1411.91 133.4C1420.84 128.733 1430.91 126.4 1442.11 126.4C1453.31 126.4 1463.31 128.733 1472.11 133.4C1481.04 138.067 1488.04 144.733 1493.11 153.4C1498.31 162.067 1500.91 172.2 1500.91 183.8C1500.91 195.4 1498.31 205.6 1493.11 214.4C1488.04 223.067 1481.04 229.733 1472.11 234.4C1463.17 239.067 1453.11 241.4 1441.91 241.4ZM1441.91 207.4C1447.37 207.4 1451.91 205.4 1455.51 201.4C1459.24 197.267 1461.11 191.4 1461.11 183.8C1461.11 176.2 1459.24 170.4 1455.51 166.4C1451.91 162.4 1447.44 160.4 1442.11 160.4C1436.77 160.4 1432.31 162.4 1428.71 166.4C1425.11 170.4 1423.31 176.2 1423.31 183.8C1423.31 191.533 1425.04 197.4 1428.51 201.4C1431.97 205.4 1436.44 207.4 1441.91 207.4Z" fill="#EAE6E0"/>
<path d="M573.4 139.8L572.642 140.453L572.648 140.459L572.653 140.465L573.4 139.8ZM584.8 240V241H585.8V240H584.8ZM545.6 240H544.6V241H545.6V240ZM540.6 164.8L539.854 165.466L539.86 165.473L539.866 165.479L540.6 164.8ZM513.4 164.8L514.134 165.479L514.14 165.473L514.146 165.466L513.4 164.8ZM508.4 240V241H509.4V240H508.4ZM469.2 240H468.2V241H469.2V240ZM469.2 92V91H468.2V92H469.2ZM508.4 92H509.4V91H508.4V92ZM508.4 143.8H507.4V147.032L509.225 144.365L508.4 143.8ZM522.4 131.6L522.863 132.486L522.871 132.482L522.4 131.6ZM543 127.8C555.548 127.8 565.39 132.034 572.642 140.453L574.158 139.147C566.477 130.232 556.052 125.8 543 125.8V127.8ZM572.653 140.465C580.048 148.768 583.8 160.107 583.8 174.6H585.8C585.8 159.76 581.952 147.899 574.147 139.135L572.653 140.465ZM583.8 174.6V240H585.8V174.6H583.8ZM584.8 239H545.6V241H584.8V239ZM546.6 240V179.8H544.6V240H546.6ZM546.6 179.8C546.6 173.227 544.885 167.956 541.334 164.121L539.866 165.479C542.981 168.844 544.6 173.573 544.6 179.8H546.6ZM541.346 164.134C537.799 160.162 533.047 158.2 527.2 158.2V160.2C532.553 160.2 536.734 161.972 539.854 165.466L541.346 164.134ZM527.2 158.2C521.102 158.2 516.21 160.151 512.654 164.134L514.146 165.466C517.256 161.982 521.564 160.2 527.2 160.2V158.2ZM512.666 164.121C509.115 167.956 507.4 173.227 507.4 179.8H509.4C509.4 173.573 511.019 168.844 514.134 165.479L512.666 164.121ZM507.4 179.8V240H509.4V179.8H507.4ZM508.4 239H469.2V241H508.4V239ZM470.2 240V92H468.2V240H470.2ZM469.2 93H508.4V91H469.2V93ZM507.4 92V143.8H509.4V92H507.4ZM509.225 144.365C512.592 139.444 517.13 135.483 522.863 132.486L521.937 130.714C515.937 133.85 511.141 138.023 507.575 143.235L509.225 144.365ZM522.871 132.482C528.707 129.37 535.408 127.8 543 127.8V125.8C535.125 125.8 528.093 127.43 521.929 130.718L522.871 132.482ZM721.109 127.8H722.109V126.8H721.109V127.8ZM721.109 240V241H722.109V240H721.109ZM681.709 240H680.709V241H681.709V240ZM681.709 224H682.709V220.661L680.874 223.45L681.709 224ZM667.909 236.4L668.373 237.286L668.38 237.282L668.388 237.278L667.909 236.4ZM616.709 228.2L615.952 228.853L615.957 228.859L615.963 228.865L616.709 228.2ZM605.509 127.8V126.8H604.509V127.8H605.509ZM644.509 127.8H645.509V126.8H644.509V127.8ZM649.509 203.2L648.763 203.866L648.776 203.88L648.789 203.894L649.509 203.2ZM676.709 203.2L677.443 203.879L677.449 203.873L677.455 203.866L676.709 203.2ZM681.709 127.8V126.8H680.709V127.8H681.709ZM720.109 127.8V240H722.109V127.8H720.109ZM721.109 239H681.709V241H721.109V239ZM682.709 240V224H680.709V240H682.709ZM680.874 223.45C677.64 228.366 673.168 232.392 667.431 235.522L668.388 237.278C674.384 234.008 679.112 229.767 682.545 224.55L680.874 223.45ZM667.446 235.514C661.742 238.495 655.172 240 647.709 240V242C655.447 242 662.343 240.438 668.373 237.286L667.446 235.514ZM647.709 240C634.883 240 624.838 235.824 617.456 227.535L615.963 228.865C623.781 237.643 634.403 242 647.709 242V240ZM617.467 227.547C610.198 219.11 606.509 207.632 606.509 193H604.509C604.509 207.968 608.287 219.957 615.952 228.853L617.467 227.547ZM606.509 193V127.8H604.509V193H606.509ZM605.509 128.8H644.509V126.8H605.509V128.8ZM643.509 127.8V188H645.509V127.8H643.509ZM643.509 188C643.509 194.575 645.225 199.903 648.763 203.866L650.255 202.534C647.127 199.03 645.509 194.225 645.509 188H643.509ZM648.789 203.894C652.468 207.714 657.274 209.6 663.109 209.6V207.6C657.745 207.6 653.484 205.886 650.23 202.506L648.789 203.894ZM663.109 209.6C669.07 209.6 673.888 207.719 677.443 203.879L675.976 202.521C672.864 205.881 668.615 207.6 663.109 207.6V209.6ZM677.455 203.866C680.994 199.903 682.709 194.575 682.709 188H680.709C680.709 194.225 679.092 199.03 675.963 202.534L677.455 203.866ZM682.709 188V127.8H680.709V188H682.709ZM681.709 128.8H721.109V126.8H681.709V128.8ZM923.219 139.6L922.489 140.284L922.495 140.29L923.219 139.6ZM935.419 240V241H936.419V240H935.419ZM896.219 240H895.219V241H896.219V240ZM891.219 165.8L890.512 166.507L891.219 165.8ZM864.019 165.8L864.726 166.507L864.019 165.8ZM859.019 240V241H860.019V240H859.019ZM819.819 240H818.819V241H819.819V240ZM814.819 165.8L814.097 166.493L814.104 166.5L814.112 166.507L814.819 165.8ZM782.619 240V241H783.619V240H782.619ZM743.419 240H742.419V241H743.419V240ZM743.419 127.8V126.8H742.419V127.8H743.419ZM782.619 127.8H783.619V126.8H782.619V127.8ZM782.619 142.6H781.619V145.693L783.429 143.185L782.619 142.6ZM796.019 131.2L796.475 132.09L796.483 132.086L796.019 131.2ZM837.219 132.2L836.728 133.072L836.736 133.076L837.219 132.2ZM852.619 147.4L851.751 147.896L852.562 149.317L853.456 147.946L852.619 147.4ZM868.419 132.6L868.915 133.468L868.922 133.464L868.928 133.461L868.419 132.6ZM890.019 127.8C903.938 127.8 914.717 131.993 922.489 140.284L923.948 138.916C915.721 130.14 904.366 125.8 890.019 125.8V127.8ZM922.495 140.29C930.409 148.593 934.419 159.988 934.419 174.6H936.419C936.419 159.612 932.296 147.674 923.943 138.91L922.495 140.29ZM934.419 174.6V240H936.419V174.6H934.419ZM935.419 239H896.219V241H935.419V239ZM897.219 240V179.8H895.219V240H897.219ZM897.219 179.8C897.219 173.611 895.494 168.661 891.926 165.093L890.512 166.507C893.61 169.605 895.219 173.989 895.219 179.8H897.219ZM891.926 165.093C888.366 161.533 883.556 159.8 877.619 159.8V161.8C883.148 161.8 887.405 163.4 890.512 166.507L891.926 165.093ZM877.619 159.8C871.681 159.8 866.872 161.533 863.312 165.093L864.726 166.507C867.832 163.4 872.09 161.8 877.619 161.8V159.8ZM863.312 165.093C859.743 168.661 858.019 173.611 858.019 179.8H860.019C860.019 173.989 861.628 169.605 864.726 166.507L863.312 165.093ZM858.019 179.8V240H860.019V179.8H858.019ZM859.019 239H819.819V241H859.019V239ZM820.819 240V179.8H818.819V240H820.819ZM820.819 179.8C820.819 173.611 819.094 168.661 815.526 165.093L814.112 166.507C817.21 169.605 818.819 173.989 818.819 179.8H820.819ZM815.54 165.107C812.108 161.532 807.355 159.8 801.419 159.8V161.8C806.95 161.8 811.129 163.401 814.097 166.493L815.54 165.107ZM801.419 159.8C795.355 159.8 790.476 161.529 786.912 165.093L788.326 166.507C791.428 163.405 795.749 161.8 801.419 161.8V159.8ZM786.912 165.093C783.343 168.661 781.619 173.611 781.619 179.8H783.619C783.619 173.989 785.228 169.605 788.326 166.507L786.912 165.093ZM781.619 179.8V240H783.619V179.8H781.619ZM782.619 239H743.419V241H782.619V239ZM744.419 240V127.8H742.419V240H744.419ZM743.419 128.8H782.619V126.8H743.419V128.8ZM781.619 127.8V142.6H783.619V127.8H781.619ZM783.429 143.185C786.8 138.518 791.143 134.821 796.475 132.09L795.563 130.31C789.961 133.179 785.371 137.082 781.808 142.015L783.429 143.185ZM796.483 132.086C801.921 129.237 808.158 127.8 815.219 127.8V125.8C807.88 125.8 801.317 127.296 795.555 130.314L796.483 132.086ZM815.219 127.8C823.336 127.8 830.496 129.566 836.728 133.072L837.709 131.328C831.141 127.634 823.635 125.8 815.219 125.8V127.8ZM836.736 133.076C843.107 136.586 848.108 141.521 851.751 147.896L853.487 146.904C849.663 140.212 844.397 135.014 837.701 131.324L836.736 133.076ZM853.456 147.946C857.367 141.95 862.515 137.125 868.915 133.468L867.923 131.732C861.255 135.542 855.87 140.584 851.781 146.854L853.456 147.946ZM868.928 133.461C875.301 129.689 882.324 127.8 890.019 127.8V125.8C881.98 125.8 874.603 127.778 867.909 131.739L868.928 133.461ZM996.095 143.4H995.095V147.145L996.962 143.898L996.095 143.4ZM1009.1 131L1009.56 131.886L1009.57 131.882L1009.58 131.877L1009.1 131ZM1053.1 133.4L1052.55 134.239L1052.56 134.244L1053.1 133.4ZM1070.3 153.4L1069.39 153.831L1069.4 153.842L1070.3 153.4ZM1070.3 214.4L1069.4 213.964L1069.39 213.97L1070.3 214.4ZM1053.1 234.4L1052.56 233.556L1052.55 233.561L1053.1 234.4ZM1009.1 237L1008.61 237.877L1008.62 237.882L1008.63 237.886L1009.1 237ZM996.095 224.4L996.962 223.902L995.095 220.655V224.4H996.095ZM996.095 240V241H997.095V240H996.095ZM956.895 240H955.895V241H956.895V240ZM956.895 92V91H955.895V92H956.895ZM996.095 92H997.095V91H996.095V92ZM1030.9 166.8L1030.17 167.483L1030.18 167.495L1030.19 167.507L1030.9 166.8ZM1001.9 166.8L1001.18 166.105L1001.17 166.111L1001.17 166.117L1001.9 166.8ZM1001.9 201L1001.17 201.683L1001.17 201.689L1001.18 201.695L1001.9 201ZM1030.9 201L1030.17 200.316L1030.17 200.317L1030.9 201ZM996.962 143.898C999.931 138.735 1004.12 134.734 1009.56 131.886L1008.63 130.114C1002.87 133.133 998.393 137.399 995.228 142.902L996.962 143.898ZM1009.58 131.877C1015 128.905 1021.43 127.4 1028.9 127.4V125.4C1021.16 125.4 1014.39 126.962 1008.61 130.123L1009.58 131.877ZM1028.9 127.4C1037.64 127.4 1045.52 129.682 1052.55 134.239L1053.64 132.561C1046.27 127.785 1038.01 125.4 1028.9 125.4V127.4ZM1052.56 134.244C1059.72 138.799 1065.33 145.315 1069.39 153.83L1071.2 152.97C1066.99 144.152 1061.14 137.334 1053.63 132.556L1052.56 134.244ZM1069.4 153.842C1073.58 162.346 1075.7 172.323 1075.7 183.8H1077.7C1077.7 172.077 1075.54 161.787 1071.19 152.958L1069.4 153.842ZM1075.7 183.8C1075.7 195.277 1073.59 205.323 1069.4 213.964L1071.2 214.836C1075.54 205.877 1077.7 195.523 1077.7 183.8H1075.7ZM1069.39 213.97C1065.33 222.485 1059.72 229.001 1052.56 233.556L1053.63 235.244C1061.14 230.466 1066.99 223.648 1071.2 214.83L1069.39 213.97ZM1052.55 233.561C1045.52 238.118 1037.64 240.4 1028.9 240.4V242.4C1038.01 242.4 1046.27 240.015 1053.64 235.239L1052.55 233.561ZM1028.9 240.4C1021.42 240.4 1014.99 238.959 1009.56 236.114L1008.63 237.886C1014.4 240.908 1021.17 242.4 1028.9 242.4V240.4ZM1009.58 236.123C1004.13 233.141 999.934 229.069 996.962 223.902L995.228 224.898C998.39 230.397 1002.86 234.726 1008.61 237.877L1009.58 236.123ZM995.095 224.4V240H997.095V224.4H995.095ZM996.095 239H956.895V241H996.095V239ZM957.895 240V92H955.895V240H957.895ZM956.895 93H996.095V91H956.895V93ZM995.095 92V143.4H997.095V92H995.095ZM1037.9 183.8C1037.9 176.283 1035.84 170.331 1031.6 166.093L1030.19 167.507C1033.95 171.269 1035.9 176.65 1035.9 183.8H1037.9ZM1031.63 166.117C1027.57 161.778 1022.5 159.6 1016.5 159.6V161.6C1021.96 161.6 1026.49 163.555 1030.17 167.483L1031.63 166.117ZM1016.5 159.6C1010.49 159.6 1005.36 161.777 1001.18 166.105L1002.61 167.495C1006.43 163.556 1011.03 161.6 1016.5 161.6V159.6ZM1001.17 166.117C997.082 170.482 995.095 176.418 995.095 183.8H997.095C997.095 176.782 998.976 171.385 1002.63 167.483L1001.17 166.117ZM995.095 183.8C995.095 191.31 997.079 197.315 1001.17 201.683L1002.63 200.317C998.979 196.419 997.095 190.957 997.095 183.8H995.095ZM1001.18 201.695C1005.36 206.023 1010.49 208.2 1016.5 208.2V206.2C1011.03 206.2 1006.43 204.244 1002.61 200.305L1001.18 201.695ZM1016.5 208.2C1022.5 208.2 1027.57 206.022 1031.63 201.683L1030.17 200.317C1026.49 204.245 1021.96 206.2 1016.5 206.2V208.2ZM1031.62 201.684C1035.84 197.191 1037.9 191.192 1037.9 183.8H1035.9C1035.9 190.808 1033.95 196.275 1030.17 200.316L1031.62 201.684ZM1199.43 191.8V192.8H1200.31L1200.42 191.929L1199.43 191.8ZM1125.23 191.8V190.8H1124.17L1124.23 191.865L1125.23 191.8ZM1130.23 205.6L1129.51 206.291L1129.53 206.307L1129.54 206.323L1130.23 205.6ZM1155.83 201.2V200.2H1155.2L1154.93 200.769L1155.83 201.2ZM1197.63 201.2L1198.61 201.419L1198.88 200.2H1197.63V201.2ZM1187.43 222L1186.66 221.363L1186.66 221.365L1187.43 222ZM1168.63 236.2L1169.05 237.11L1168.63 236.2ZM1113.83 234.4L1113.35 235.277L1113.36 235.28L1113.83 234.4ZM1093.63 214.4L1092.76 214.885L1092.76 214.895L1093.63 214.4ZM1093.63 153.4L1094.5 153.89L1094.51 153.884L1093.63 153.4ZM1113.63 133.4L1113.16 132.52L1113.15 132.523L1113.63 133.4ZM1172.83 133.2L1173.3 132.317L1172.83 133.2ZM1192.83 152.8L1191.96 153.29L1191.96 153.296L1192.83 152.8ZM1160.03 172.8V173.8H1161.03V172.8H1160.03ZM1155.23 161.6L1154.57 162.353L1154.58 162.361L1154.59 162.368L1155.23 161.6ZM1131.43 161.4L1132.07 162.171L1132.08 162.163L1132.09 162.155L1131.43 161.4ZM1125.43 172.8L1124.45 172.619L1124.23 173.8H1125.43V172.8ZM1199.03 182.6C1199.03 185.623 1198.84 188.647 1198.44 191.671L1200.42 191.929C1200.83 188.82 1201.03 185.71 1201.03 182.6H1199.03ZM1199.43 190.8H1125.23V192.8H1199.43V190.8ZM1124.23 191.865C1124.64 198.13 1126.36 202.993 1129.51 206.291L1130.96 204.909C1128.24 202.074 1126.62 197.736 1126.23 191.735L1124.23 191.865ZM1129.54 206.323C1132.81 209.452 1136.94 211 1141.83 211V209C1137.4 209 1133.79 207.614 1130.92 204.877L1129.54 206.323ZM1141.83 211C1145.25 211 1148.24 210.231 1150.77 208.647C1153.29 207.062 1155.27 204.704 1156.74 201.631L1154.93 200.769C1153.6 203.563 1151.85 205.604 1149.7 206.953C1147.55 208.303 1144.95 209 1141.83 209V211ZM1155.83 202.2H1197.63V200.2H1155.83V202.2ZM1196.66 200.981C1194.96 208.56 1191.63 215.351 1186.66 221.363L1188.2 222.637C1193.37 216.383 1196.84 209.306 1198.61 201.419L1196.66 200.981ZM1186.66 221.365C1181.83 227.239 1175.69 231.882 1168.22 235.29L1169.05 237.11C1176.78 233.585 1183.17 228.761 1188.21 222.635L1186.66 221.365ZM1168.22 235.29C1160.76 238.692 1152.5 240.4 1143.43 240.4V242.4C1152.76 242.4 1161.3 240.642 1169.05 237.11L1168.22 235.29ZM1143.43 240.4C1132.51 240.4 1122.81 238.098 1114.31 233.52L1113.36 235.28C1122.19 240.035 1132.22 242.4 1143.43 242.4V240.4ZM1114.31 233.523C1105.95 228.947 1099.35 222.415 1094.5 213.905L1092.76 214.895C1097.79 223.718 1104.65 230.519 1113.35 235.277L1114.31 233.523ZM1094.51 213.915C1089.8 205.422 1087.43 195.395 1087.43 183.8H1085.43C1085.43 195.672 1087.86 206.044 1092.76 214.885L1094.51 213.915ZM1087.43 183.8C1087.43 172.204 1089.8 162.247 1094.5 153.89L1092.76 152.91C1087.86 161.62 1085.43 171.929 1085.43 183.8H1087.43ZM1094.51 153.884C1099.22 145.38 1105.75 138.851 1114.11 134.277L1113.15 132.523C1104.45 137.282 1097.65 144.086 1092.76 152.915L1094.51 153.884ZM1114.11 134.28C1122.61 129.703 1132.38 127.4 1143.43 127.4V125.4C1132.09 125.4 1121.99 127.764 1113.16 132.52L1114.11 134.28ZM1143.43 127.4C1154.36 127.4 1163.99 129.637 1172.36 134.083L1173.3 132.317C1164.6 127.696 1154.64 125.4 1143.43 125.4V127.4ZM1172.36 134.083C1180.73 138.525 1187.25 144.921 1191.96 153.29L1193.7 152.31C1188.81 143.612 1182.01 136.941 1173.3 132.317L1172.36 134.083ZM1191.96 153.296C1196.66 161.519 1199.03 171.275 1199.03 182.6H1201.03C1201.03 170.992 1198.6 160.881 1193.7 152.304L1191.96 153.296ZM1161.03 172.8C1161.03 167.754 1159.34 163.719 1155.87 160.832L1154.59 162.368C1157.53 164.815 1159.03 168.246 1159.03 172.8H1161.03ZM1155.89 160.847C1152.49 157.867 1148.24 156.4 1143.23 156.4V158.4C1147.82 158.4 1151.58 159.733 1154.57 162.353L1155.89 160.847ZM1143.23 156.4C1138.24 156.4 1134.06 157.793 1130.78 160.645L1132.09 162.155C1134.94 159.674 1138.63 158.4 1143.23 158.4V156.4ZM1130.8 160.629C1127.5 163.352 1125.41 167.39 1124.45 172.619L1126.42 172.981C1127.32 168.076 1129.23 164.515 1132.07 162.171L1130.8 160.629ZM1125.43 173.8H1160.03V171.8H1125.43V173.8ZM1255.28 147.6H1254.28V150.82L1256.1 148.167L1255.28 147.6ZM1291.47 126.8H1292.47V125.8H1291.47V126.8ZM1291.47 168.6V169.6H1292.47V168.6H1291.47ZM1261.47 173.6L1262.1 174.378L1261.47 173.6ZM1255.28 240V241H1256.28V240H1255.28ZM1216.08 240H1215.08V241H1216.08V240ZM1216.08 127.8V126.8H1215.08V127.8H1216.08ZM1255.28 127.8H1256.28V126.8H1255.28V127.8ZM1256.1 148.167C1260.42 141.878 1265.65 136.914 1271.79 133.259L1270.76 131.541C1264.36 135.353 1258.93 140.522 1254.45 147.033L1256.1 148.167ZM1271.79 133.259C1277.9 129.617 1284.46 127.8 1291.47 127.8V125.8C1284.09 125.8 1277.18 127.717 1270.76 131.541L1271.79 133.259ZM1290.47 126.8V168.6H1292.47V126.8H1290.47ZM1291.47 167.6H1280.47V169.6H1291.47V167.6ZM1280.47 167.6C1271.84 167.6 1265.24 169.281 1260.85 172.822L1262.1 174.378C1265.98 171.253 1272.04 169.6 1280.47 169.6V167.6ZM1260.85 172.822C1256.37 176.43 1254.28 182.601 1254.28 191H1256.28C1256.28 182.866 1258.31 177.436 1262.1 174.378L1260.85 172.822ZM1254.28 191V240H1256.28V191H1254.28ZM1255.28 239H1216.08V241H1255.28V239ZM1217.08 240V127.8H1215.08V240H1217.08ZM1216.08 128.8H1255.28V126.8H1216.08V128.8ZM1254.28 127.8V147.6H1256.28V127.8H1254.28ZM1371.73 206.6H1372.73V205.6H1371.73V206.6ZM1371.73 240V241H1372.73V240H1371.73ZM1311.73 160.4H1312.73V159.4H1311.73V160.4ZM1297.93 160.4H1296.93V161.4H1297.93V160.4ZM1297.93 127.8V126.8H1296.93V127.8H1297.93ZM1311.73 127.8V128.8H1312.73V127.8H1311.73ZM1311.73 100.6V99.6H1310.73V100.6H1311.73ZM1351.13 100.6H1352.13V99.6H1351.13V100.6ZM1351.13 127.8H1350.13V128.8H1351.13V127.8ZM1371.53 127.8H1372.53V126.8H1371.53V127.8ZM1371.53 160.4V161.4H1372.53V160.4H1371.53ZM1351.13 160.4V159.4H1350.13V160.4H1351.13ZM1353.13 204.6L1352.42 205.307L1352.44 205.324L1352.46 205.34L1353.13 204.6ZM1370.73 206.6V240H1372.73V206.6H1370.73ZM1371.73 239H1354.73V241H1371.73V239ZM1354.73 239C1340.55 239 1330.09 235.488 1323.18 228.64C1316.27 221.793 1312.73 211.443 1312.73 197.4H1310.73C1310.73 211.757 1314.35 222.707 1321.77 230.06C1329.2 237.412 1340.24 241 1354.73 241V239ZM1312.73 197.4V160.4H1310.73V197.4H1312.73ZM1311.73 159.4H1297.93V161.4H1311.73V159.4ZM1298.93 160.4V127.8H1296.93V160.4H1298.93ZM1297.93 128.8H1311.73V126.8H1297.93V128.8ZM1312.73 127.8V100.6H1310.73V127.8H1312.73ZM1311.73 101.6H1351.13V99.6H1311.73V101.6ZM1350.13 100.6V127.8H1352.13V100.6H1350.13ZM1351.13 128.8H1371.53V126.8H1351.13V128.8ZM1370.53 127.8V160.4H1372.53V127.8H1370.53ZM1371.53 159.4H1351.13V161.4H1371.53V159.4ZM1350.13 160.4V198H1352.13V160.4H1350.13ZM1350.13 198C1350.13 201.173 1350.81 203.698 1352.42 205.307L1353.84 203.893C1352.78 202.835 1352.13 200.96 1352.13 198H1350.13ZM1352.46 205.34C1354.2 206.923 1356.9 207.6 1360.33 207.6V205.6C1357.09 205.6 1354.99 204.944 1353.8 203.86L1352.46 205.34ZM1360.33 207.6H1371.73V205.6H1360.33V207.6ZM1411.71 234.4L1411.24 235.283L1411.24 235.286L1411.71 234.4ZM1390.91 214.4L1391.77 213.895L1390.91 214.4ZM1390.91 153.4L1390.05 152.885L1390.04 152.895L1390.91 153.4ZM1411.91 133.4L1411.44 132.514L1411.44 132.517L1411.91 133.4ZM1472.11 133.4L1471.64 134.283L1471.64 134.286L1472.11 133.4ZM1493.11 153.4L1492.24 153.905L1492.25 153.914L1493.11 153.4ZM1493.11 214.4L1492.25 213.891L1492.24 213.895L1493.11 214.4ZM1472.11 234.4L1471.64 233.514L1472.11 234.4ZM1455.51 201.4L1454.77 200.73L1454.76 200.731L1455.51 201.4ZM1455.51 166.4L1454.76 167.069L1454.77 167.076L1454.78 167.082L1455.51 166.4ZM1428.51 201.4L1427.75 202.055L1428.51 201.4ZM1441.91 240.4C1430.85 240.4 1420.95 238.098 1412.17 233.514L1411.24 235.286C1420.34 240.036 1430.56 242.4 1441.91 242.4V240.4ZM1412.18 233.517C1403.54 228.938 1396.74 222.403 1391.77 213.895L1390.04 214.905C1395.2 223.731 1402.27 230.529 1411.24 235.283L1412.18 233.517ZM1391.77 213.895C1386.81 205.406 1384.31 195.386 1384.31 183.8H1382.31C1382.31 195.68 1384.87 206.061 1390.04 214.905L1391.77 213.895ZM1384.31 183.8C1384.31 172.349 1386.81 162.396 1391.77 153.905L1390.04 152.895C1384.88 161.738 1382.31 172.051 1382.31 183.8H1384.31ZM1391.77 153.914C1396.87 145.402 1403.74 138.864 1412.38 134.283L1411.44 132.517C1402.48 137.27 1395.34 144.065 1390.05 152.885L1391.77 153.914ZM1412.37 134.286C1421.15 129.702 1431.05 127.4 1442.11 127.4V125.4C1430.76 125.4 1420.54 127.764 1411.44 132.514L1412.37 134.286ZM1442.11 127.4C1453.17 127.4 1463 129.702 1471.64 134.283L1472.58 132.517C1463.61 127.764 1453.45 125.4 1442.11 125.4V127.4ZM1471.64 134.286C1480.41 138.866 1487.27 145.401 1492.24 153.905L1493.97 152.895C1488.81 144.066 1481.67 137.267 1472.57 132.514L1471.64 134.286ZM1492.25 153.914C1497.34 162.404 1499.91 172.354 1499.91 183.8H1501.91C1501.91 172.046 1499.27 161.729 1493.97 152.885L1492.25 153.914ZM1499.91 183.8C1499.91 195.246 1497.34 205.265 1492.25 213.891L1493.97 214.909C1499.27 205.935 1501.91 195.554 1501.91 183.8H1499.91ZM1492.24 213.895C1487.27 222.399 1480.41 228.934 1471.64 233.514L1472.57 235.286C1481.67 230.533 1488.81 223.734 1493.97 214.905L1492.24 213.895ZM1471.64 233.514C1462.87 238.098 1452.96 240.4 1441.91 240.4V242.4C1453.25 242.4 1463.48 240.036 1472.57 235.286L1471.64 233.514ZM1441.91 208.4C1447.65 208.4 1452.46 206.283 1456.25 202.069L1454.76 200.731C1451.36 204.517 1447.1 206.4 1441.91 206.4V208.4ZM1456.25 202.07C1460.2 197.695 1462.11 191.557 1462.11 183.8H1460.11C1460.11 191.243 1458.28 196.838 1454.77 200.73L1456.25 202.07ZM1462.11 183.8C1462.11 176.046 1460.2 169.964 1456.24 165.718L1454.78 167.082C1458.28 170.835 1460.11 176.354 1460.11 183.8H1462.11ZM1456.25 165.731C1452.46 161.522 1447.73 159.4 1442.11 159.4V161.4C1447.15 161.4 1451.35 163.277 1454.76 167.069L1456.25 165.731ZM1442.11 159.4C1436.49 159.4 1431.75 161.522 1427.96 165.731L1429.45 167.069C1432.86 163.277 1437.06 161.4 1442.11 161.4V159.4ZM1427.96 165.731C1424.14 169.978 1422.31 176.054 1422.31 183.8H1424.31C1424.31 176.346 1426.07 170.822 1429.45 167.069L1427.96 165.731ZM1422.31 183.8C1422.31 191.665 1424.07 197.805 1427.75 202.055L1429.26 200.745C1426.01 196.995 1424.31 191.401 1424.31 183.8H1422.31ZM1427.75 202.055C1431.42 206.282 1436.16 208.4 1441.91 208.4V206.4C1436.72 206.4 1432.53 204.518 1429.26 200.745L1427.75 202.055Z" fill="#EAE6E0" mask="url(#path-4-outside-2_214_2)"/>
<mask id="path-6-outside-3_214_2" maskUnits="userSpaceOnUse" x="470" y="253" width="120" height="29" fill="black">
<rect fill="white" x="470" y="253" width="120" height="29"/>
<path d="M588.8 254V280.6H471.4V254H588.8Z"/>
</mask>
<path d="M588.8 254V280.6H471.4V254H588.8Z" fill="#EAE6E0"/>
<path d="M588.8 254H589.8V253H588.8V254ZM588.8 280.6V281.6H589.8V280.6H588.8ZM471.4 280.6H470.4V281.6H471.4V280.6ZM471.4 254V253H470.4V254H471.4ZM587.8 254V280.6H589.8V254H587.8ZM588.8 279.6H471.4V281.6H588.8V279.6ZM472.4 280.6V254H470.4V280.6H472.4ZM471.4 255H588.8V253H471.4V255Z" fill="#EAE6E0" mask="url(#path-6-outside-3_214_2)"/>
</svg>
