<svg width="1506" height="281" viewBox="0 0 1506 281" fill="none" xmlns="http://www.w3.org/2000/svg">
<rect x="10" y="10" width="430" height="260" stroke="url(#paint0_linear_114_22)" stroke-width="20"/>
<path d="M33.8 183.8C33.8 172.2 35.8667 162.067 40 153.4C44.2667 144.733 50.0667 138.067 57.4 133.4C64.7333 128.733 72.8667 126.4 81.8 126.4C89 126.4 95.4 127.933 101 131C106.733 133.933 111.2 138 114.4 143.2V92H153.8V240H114.4V224.4C111.333 229.6 107 233.733 101.4 236.8C95.8 239.867 89.2 241.4 81.6 241.4C72.6667 241.4 64.5333 239.067 57.2 234.4C50 229.733 44.2667 223.067 40 214.4C35.8667 205.6 33.8 195.4 33.8 183.8ZM114.6 183.8C114.6 176.6 112.6 170.933 108.6 166.8C104.733 162.667 99.9333 160.6 94.2 160.6C88.3333 160.6 83.4667 162.667 79.6 166.8C75.7333 170.8 73.8 176.467 73.8 183.8C73.8 191 75.7333 196.733 79.6 201C83.4667 205.133 88.3333 207.2 94.2 207.2C99.9333 207.2 104.733 205.133 108.6 201C112.6 196.867 114.6 191.133 114.6 183.8ZM283.338 182.6C283.338 185.667 283.138 188.733 282.738 191.8H208.538C208.938 197.933 210.604 202.533 213.538 205.6C216.604 208.533 220.471 210 225.138 210C231.671 210 236.338 207.067 239.138 201.2H280.938C279.204 208.933 275.804 215.867 270.738 222C265.804 228 259.538 232.733 251.938 236.2C244.338 239.667 235.938 241.4 226.738 241.4C215.671 241.4 205.804 239.067 197.138 234.4C188.604 229.733 181.871 223.067 176.938 214.4C172.138 205.733 169.738 195.533 169.738 183.8C169.738 172.067 172.138 161.933 176.938 153.4C181.738 144.733 188.404 138.067 196.938 133.4C205.604 128.733 215.538 126.4 226.738 126.4C237.804 126.4 247.604 128.667 256.138 133.2C264.671 137.733 271.338 144.267 276.138 152.8C280.938 161.2 283.338 171.133 283.338 182.6ZM243.338 172.8C243.338 168 241.738 164.267 238.538 161.6C235.338 158.8 231.338 157.4 226.538 157.4C221.738 157.4 217.804 158.733 214.738 161.4C211.671 163.933 209.671 167.733 208.738 172.8H243.338ZM353.18 203L374.18 127.8H415.98L377.38 240H328.58L289.98 127.8H331.78L353.18 203Z" fill="url(#paint1_linear_114_22)"/>
<path d="M543 126.8C555.8 126.8 565.933 131.133 573.4 139.8C581 148.333 584.8 159.933 584.8 174.6V240H545.6V179.8C545.6 173.4 543.933 168.4 540.6 164.8C537.267 161.067 532.8 159.2 527.2 159.2C521.333 159.2 516.733 161.067 513.4 164.8C510.067 168.4 508.4 173.4 508.4 179.8V240H469.2V92H508.4V143.8C511.867 138.733 516.533 134.667 522.4 131.6C528.4 128.4 535.267 126.8 543 126.8ZM721.109 127.8V240H681.709V224C678.376 229.067 673.776 233.2 667.909 236.4C662.043 239.467 655.309 241 647.709 241C634.643 241 624.309 236.733 616.709 228.2C609.243 219.533 605.509 207.8 605.509 193V127.8H644.509V188C644.509 194.4 646.176 199.467 649.509 203.2C652.976 206.8 657.509 208.6 663.109 208.6C668.843 208.6 673.376 206.8 676.709 203.2C680.043 199.467 681.709 194.4 681.709 188V127.8H721.109ZM890.019 126.8C904.152 126.8 915.219 131.067 923.219 139.6C931.352 148.133 935.419 159.8 935.419 174.6V240H896.219V179.8C896.219 173.8 894.552 169.133 891.219 165.8C887.885 162.467 883.352 160.8 877.619 160.8C871.885 160.8 867.352 162.467 864.019 165.8C860.685 169.133 859.019 173.8 859.019 179.8V240H819.819V179.8C819.819 173.8 818.152 169.133 814.819 165.8C811.619 162.467 807.152 160.8 801.419 160.8C795.552 160.8 790.952 162.467 787.619 165.8C784.285 169.133 782.619 173.8 782.619 179.8V240H743.419V127.8H782.619V142.6C786.085 137.8 790.552 134 796.019 131.2C801.619 128.267 808.019 126.8 815.219 126.8C823.485 126.8 830.819 128.6 837.219 132.2C843.752 135.8 848.885 140.867 852.619 147.4C856.619 141.267 861.885 136.333 868.419 132.6C874.952 128.733 882.152 126.8 890.019 126.8ZM996.095 143.4C999.162 138.067 1003.5 133.933 1009.1 131C1014.7 127.933 1021.3 126.4 1028.9 126.4C1037.83 126.4 1045.9 128.733 1053.1 133.4C1060.43 138.067 1066.16 144.733 1070.3 153.4C1074.56 162.067 1076.7 172.2 1076.7 183.8C1076.7 195.4 1074.56 205.6 1070.3 214.4C1066.16 223.067 1060.43 229.733 1053.1 234.4C1045.9 239.067 1037.83 241.4 1028.9 241.4C1021.3 241.4 1014.7 239.933 1009.1 237C1003.5 233.933 999.162 229.733 996.095 224.4V240H956.895V92H996.095V143.4ZM1036.9 183.8C1036.9 176.467 1034.9 170.8 1030.9 166.8C1027.03 162.667 1022.23 160.6 1016.5 160.6C1010.76 160.6 1005.9 162.667 1001.9 166.8C998.029 170.933 996.095 176.6 996.095 183.8C996.095 191.133 998.029 196.867 1001.9 201C1005.9 205.133 1010.76 207.2 1016.5 207.2C1022.23 207.2 1027.03 205.133 1030.9 201C1034.9 196.733 1036.9 191 1036.9 183.8ZM1200.03 182.6C1200.03 185.667 1199.83 188.733 1199.43 191.8H1125.23C1125.63 197.933 1127.3 202.533 1130.23 205.6C1133.3 208.533 1137.17 210 1141.83 210C1148.37 210 1153.03 207.067 1155.83 201.2H1197.63C1195.9 208.933 1192.5 215.867 1187.43 222C1182.5 228 1176.23 232.733 1168.63 236.2C1161.03 239.667 1152.63 241.4 1143.43 241.4C1132.37 241.4 1122.5 239.067 1113.83 234.4C1105.3 229.733 1098.57 223.067 1093.63 214.4C1088.83 205.733 1086.43 195.533 1086.43 183.8C1086.43 172.067 1088.83 161.933 1093.63 153.4C1098.43 144.733 1105.1 138.067 1113.63 133.4C1122.3 128.733 1132.23 126.4 1143.43 126.4C1154.5 126.4 1164.3 128.667 1172.83 133.2C1181.37 137.733 1188.03 144.267 1192.83 152.8C1197.63 161.2 1200.03 171.133 1200.03 182.6ZM1160.03 172.8C1160.03 168 1158.43 164.267 1155.23 161.6C1152.03 158.8 1148.03 157.4 1143.23 157.4C1138.43 157.4 1134.5 158.733 1131.43 161.4C1128.37 163.933 1126.37 167.733 1125.43 172.8H1160.03ZM1255.28 147.6C1259.68 141.2 1265.01 136.133 1271.28 132.4C1277.54 128.667 1284.28 126.8 1291.48 126.8V168.6H1280.48C1271.94 168.6 1265.61 170.267 1261.48 173.6C1257.34 176.933 1255.28 182.733 1255.28 191V240H1216.08V127.8H1255.28V147.6ZM1371.73 206.6V240H1354.73C1326.06 240 1311.73 225.8 1311.73 197.4V160.4H1297.93V127.8H1311.73V100.6H1351.13V127.8H1371.53V160.4H1351.13V198C1351.13 201.067 1351.79 203.267 1353.13 204.6C1354.59 205.933 1356.99 206.6 1360.33 206.6H1371.73ZM1441.91 241.4C1430.71 241.4 1420.64 239.067 1411.71 234.4C1402.91 229.733 1395.97 223.067 1390.91 214.4C1385.84 205.733 1383.31 195.533 1383.31 183.8C1383.31 172.2 1385.84 162.067 1390.91 153.4C1396.11 144.733 1403.11 138.067 1411.91 133.4C1420.84 128.733 1430.91 126.4 1442.11 126.4C1453.31 126.4 1463.31 128.733 1472.11 133.4C1481.04 138.067 1488.04 144.733 1493.11 153.4C1498.31 162.067 1500.91 172.2 1500.91 183.8C1500.91 195.4 1498.31 205.6 1493.11 214.4C1488.04 223.067 1481.04 229.733 1472.11 234.4C1463.17 239.067 1453.11 241.4 1441.91 241.4ZM1441.91 207.4C1447.37 207.4 1451.91 205.4 1455.51 201.4C1459.24 197.267 1461.11 191.4 1461.11 183.8C1461.11 176.2 1459.24 170.4 1455.51 166.4C1451.91 162.4 1447.44 160.4 1442.11 160.4C1436.77 160.4 1432.31 162.4 1428.71 166.4C1425.11 170.4 1423.31 176.2 1423.31 183.8C1423.31 191.533 1425.04 197.4 1428.51 201.4C1431.97 205.4 1436.44 207.4 1441.91 207.4Z" fill="url(#paint2_linear_114_22)"/>
<path d="M588.8 254V280.6H471.4V254H588.8Z" fill="url(#paint3_linear_114_22)"/>
<defs>
<linearGradient id="paint0_linear_114_22" x1="225" y1="-37.1875" x2="224.999" y2="465.937" gradientUnits="userSpaceOnUse">
<stop stop-color="#7226FF"/>
<stop offset="1" stop-color="#02004B"/>
</linearGradient>
<linearGradient id="paint1_linear_114_22" x1="224" y1="-11.875" x2="223.999" y2="419.375" gradientUnits="userSpaceOnUse">
<stop stop-color="#7226FF"/>
<stop offset="1" stop-color="#02004B"/>
</linearGradient>
<linearGradient id="paint2_linear_114_22" x1="982" y1="-14.1328" x2="982" y2="447.664" gradientUnits="userSpaceOnUse">
<stop stop-color="#7226FF"/>
<stop offset="1" stop-color="#02004B"/>
</linearGradient>
<linearGradient id="paint3_linear_114_22" x1="529.5" y1="-7.73436" x2="529.498" y2="448.672" gradientUnits="userSpaceOnUse">
<stop stop-color="#7226FF"/>
<stop offset="1" stop-color="#02004B"/>
</linearGradient>
</defs>
</svg>
