<svg width="393" height="292" viewBox="0 0 393 292" fill="none" xmlns="http://www.w3.org/2000/svg">
<mask id="path-1-outside-1_148_7" maskUnits="userSpaceOnUse" x="268" y="265" width="108" height="27" fill="black">
<rect fill="white" x="268" y="265" width="108" height="27"/>
<path d="M374.92 266.2V290.14H269.26V266.2H374.92Z"/>
</mask>
<path d="M374.92 266.2V290.14H269.26V266.2H374.92Z" fill="#EAE6E0"/>
<path d="M374.92 266.2H375.92V265.2H374.92V266.2ZM374.92 290.14V291.14H375.92V290.14H374.92ZM269.26 290.14H268.26V291.14H269.26V290.14ZM269.26 266.2V265.2H268.26V266.2H269.26ZM373.92 266.2V290.14H375.92V266.2H373.92ZM374.92 289.14H269.26V291.14H374.92V289.14ZM270.26 290.14V266.2H268.26V290.14H270.26ZM269.26 267.2H374.92V265.2H269.26V267.2Z" fill="#EAE6E0" mask="url(#path-1-outside-1_148_7)"/>
<rect x="10" y="10" width="230" height="270" stroke="#EAE6E0" stroke-width="20"/>
<mask id="path-4-outside-2_148_7" maskUnits="userSpaceOnUse" x="39" y="105" width="118" height="150" fill="black">
<rect fill="white" x="39" y="105" width="118" height="150"/>
<path d="M114 140.8C126.8 140.8 136.933 145.133 144.4 153.8C152 162.333 155.8 173.933 155.8 188.6V254H116.6V193.8C116.6 187.4 114.933 182.4 111.6 178.8C108.267 175.067 103.8 173.2 98.2 173.2C92.3333 173.2 87.7333 175.067 84.4 178.8C81.0667 182.4 79.4 187.4 79.4 193.8V254H40.2V106H79.4V157.8C82.8667 152.733 87.5333 148.667 93.4 145.6C99.4 142.4 106.267 140.8 114 140.8Z"/>
</mask>
<path d="M114 140.8C126.8 140.8 136.933 145.133 144.4 153.8C152 162.333 155.8 173.933 155.8 188.6V254H116.6V193.8C116.6 187.4 114.933 182.4 111.6 178.8C108.267 175.067 103.8 173.2 98.2 173.2C92.3333 173.2 87.7333 175.067 84.4 178.8C81.0667 182.4 79.4 187.4 79.4 193.8V254H40.2V106H79.4V157.8C82.8667 152.733 87.5333 148.667 93.4 145.6C99.4 142.4 106.267 140.8 114 140.8Z" fill="#EAE6E0"/>
<path d="M144.4 153.8L143.642 154.453L143.648 154.459L143.653 154.465L144.4 153.8ZM155.8 254V255H156.8V254H155.8ZM116.6 254H115.6V255H116.6V254ZM111.6 178.8L110.854 179.466L110.86 179.473L110.866 179.479L111.6 178.8ZM84.4 178.8L85.1338 179.479L85.1399 179.473L85.1459 179.466L84.4 178.8ZM79.4 254V255H80.4V254H79.4ZM40.2 254H39.2V255H40.2V254ZM40.2 106V105H39.2V106H40.2ZM79.4 106H80.4V105H79.4V106ZM79.4 157.8H78.4V161.032L80.2253 158.365L79.4 157.8ZM93.4 145.6L93.8633 146.486L93.8706 146.482L93.4 145.6ZM114 141.8C126.548 141.8 136.39 146.034 143.642 154.453L145.158 153.147C137.477 144.232 127.052 139.8 114 139.8V141.8ZM143.653 154.465C151.048 162.768 154.8 174.107 154.8 188.6H156.8C156.8 173.76 152.952 161.899 145.147 153.135L143.653 154.465ZM154.8 188.6V254H156.8V188.6H154.8ZM155.8 253H116.6V255H155.8V253ZM117.6 254V193.8H115.6V254H117.6ZM117.6 193.8C117.6 187.227 115.885 181.956 112.334 178.121L110.866 179.479C113.981 182.844 115.6 187.573 115.6 193.8H117.6ZM112.346 178.134C108.799 174.162 104.047 172.2 98.2 172.2V174.2C103.553 174.2 107.734 175.972 110.854 179.466L112.346 178.134ZM98.2 172.2C92.1023 172.2 87.2103 174.151 83.6541 178.134L85.1459 179.466C88.2564 175.982 92.5643 174.2 98.2 174.2V172.2ZM83.6662 178.121C80.1148 181.956 78.4 187.227 78.4 193.8H80.4C80.4 187.573 82.0186 182.844 85.1338 179.479L83.6662 178.121ZM78.4 193.8V254H80.4V193.8H78.4ZM79.4 253H40.2V255H79.4V253ZM41.2 254V106H39.2V254H41.2ZM40.2 107H79.4V105H40.2V107ZM78.4 106V157.8H80.4V106H78.4ZM80.2253 158.365C83.5923 153.444 88.1301 149.483 93.8633 146.486L92.9368 144.714C86.9365 147.85 82.141 152.023 78.5747 157.235L80.2253 158.365ZM93.8706 146.482C99.7069 143.37 106.408 141.8 114 141.8V139.8C106.125 139.8 99.0931 141.43 92.9294 144.718L93.8706 146.482Z" fill="#EAE6E0" mask="url(#path-4-outside-2_148_7)"/>
</svg>
