<svg width="393" height="291" viewBox="0 0 393 291" fill="none" xmlns="http://www.w3.org/2000/svg">
<path d="M374.92 266.2V290.14H269.26V266.2H374.92Z" fill="#7226FF"/>
<rect x="10" y="10" width="230" height="270" stroke="#7226FF" stroke-width="20"/>
<path d="M114 140.8C126.8 140.8 136.933 145.133 144.4 153.8C152 162.333 155.8 173.933 155.8 188.6V254H116.6V193.8C116.6 187.4 114.933 182.4 111.6 178.8C108.267 175.067 103.8 173.2 98.2 173.2C92.3333 173.2 87.7333 175.067 84.4 178.8C81.0667 182.4 79.4 187.4 79.4 193.8V254H40.2V106H79.4V157.8C82.8667 152.733 87.5333 148.667 93.4 145.6C99.4 142.4 106.267 140.8 114 140.8Z" fill="#7226FF"/>
</svg>
